<svg width="31" height="30" viewBox="0 0 31 30" fill="none" xmlns="http://www.w3.org/2000/svg">
<g clip-path="url(#clip0)">
<path fill-rule="evenodd" clip-rule="evenodd" d="M15.3781 0C11.726 0.000626467 8.19325 1.30073 5.412 3.6677C2.63076 6.03468 0.782483 9.31406 0.197881 12.9191C-0.38672 16.5241 0.330503 20.2195 2.22122 23.3441C4.11193 26.4687 7.05275 28.8186 10.5175 29.9733C11.2873 30.1143 11.5671 29.64 11.5671 29.231C11.5671 28.8658 11.5538 27.8986 11.5463 26.6151C7.26846 27.5452 6.36583 24.5538 6.36583 24.5538C6.08323 23.6242 5.47772 22.8262 4.65854 22.3038C3.26227 21.3492 4.76395 21.3693 4.76395 21.3693C5.25127 21.4365 5.7168 21.6141 6.125 21.8886C6.5332 22.1632 6.87327 22.5273 7.11926 22.9534C8.49103 25.3042 10.7194 24.6258 11.5953 24.2316C11.6655 23.4519 12.0116 22.7227 12.5714 22.1754C9.15687 21.7872 5.56637 20.4681 5.56637 14.5743C5.54413 13.0462 6.11113 11.5682 7.14969 10.4471C6.67916 9.12102 6.73226 7.66538 7.29815 6.37709C7.29815 6.37709 8.58902 5.96362 11.5293 7.95373C14.0498 7.26385 16.7093 7.26385 19.2299 7.95373C22.1664 5.96362 23.455 6.37709 23.455 6.37709C24.0225 7.66473 24.0775 9.12035 23.6087 10.4471C24.6468 11.5683 25.2128 13.0465 25.189 14.5743C25.189 20.483 21.5926 21.7828 18.1669 22.1636C18.5338 22.5365 18.8168 22.9836 18.997 23.4748C19.1771 23.966 19.2502 24.49 19.2113 25.0118C19.2113 27.0679 19.1927 28.7232 19.1927 29.231C19.1927 29.6415 19.4704 30.1217 20.2505 29.9733C23.7142 28.8166 26.6533 26.4654 28.5423 23.3403C30.4313 20.2152 31.1468 16.5199 30.5609 12.9156C29.9751 9.3112 28.126 6.03283 25.3445 3.66684C22.563 1.30086 19.0305 0.00159716 15.3788 0.00147246L15.3781 0Z" fill="#9BA6C7"/>
</g>
<defs>
<clipPath id="clip0">
<rect width="30.7586" height="30" fill="white"/>
</clipPath>
</defs>
</svg>
