<svg width="29" height="41" viewBox="0 0 29 41" fill="none" xmlns="http://www.w3.org/2000/svg">
<path d="M1.23438 22H8.10156V19.4336H3.97656L8.10156 6.92969V4.36328H1.82031V6.92969H5.30078L1.23438 19.2109V22ZM9.29688 22H15.2266V19.3398H11.8867V14.4883H14.2891V11.6523H11.8867V7.02344H15.2266V4.36328H9.29688V22ZM16.6562 22H19.2461V14.5586H19.9375L21.2852 22H23.875L22.2227 13.457C22.6992 13.1367 23.0586 12.6211 23.3008 11.9102C23.543 11.1914 23.6641 10.3711 23.6641 9.44922C23.6641 7.75391 23.3086 6.48438 22.5977 5.64062C21.8867 4.78906 20.7695 4.36328 19.2461 4.36328H16.6562V22ZM19.2461 12.1562V6.92969C19.793 6.92969 20.2031 7.05078 20.4766 7.29297C20.9375 7.69922 21.168 8.44922 21.168 9.54297C21.168 10.6289 20.9375 11.375 20.4766 11.7812C20.1953 12.0312 19.7852 12.1562 19.2461 12.1562Z" fill="white"/>
<path d="M0.796875 36.3789C0.820312 37.1367 0.960938 37.7773 1.21875 38.3008C1.45312 38.8242 1.78906 39.2539 2.22656 39.5898C2.71875 39.9883 3.39062 40.1875 4.24219 40.1875C5.07812 40.1875 5.74219 39.9883 6.23438 39.5898C6.71094 39.2305 7.05859 38.8008 7.27734 38.3008C7.53516 37.7773 7.67578 37.1367 7.69922 36.3789V25.9844C7.67578 25.2422 7.53516 24.6094 7.27734 24.0859C7.05078 23.5625 6.70312 23.125 6.23438 22.7734C5.69531 22.3672 5.03125 22.1641 4.24219 22.1641C3.4375 22.1641 2.76562 22.3672 2.22656 22.7734C1.79688 23.1016 1.46094 23.5391 1.21875 24.0859C0.960938 24.6094 0.820312 25.2422 0.796875 25.9844V36.3789ZM3.38672 36.3789V25.9844C3.38672 25.7188 3.41797 25.5039 3.48047 25.3398C3.61328 24.9023 3.86719 24.6836 4.24219 24.6836C4.46875 24.6836 4.64844 24.75 4.78125 24.8828C5 25.1562 5.10938 25.5234 5.10938 25.9844V36.3789C5.10938 36.6602 5.07812 36.875 5.01562 37.0234C4.90625 37.4531 4.64844 37.668 4.24219 37.668C4.03125 37.668 3.86328 37.6055 3.73828 37.4805C3.50391 37.207 3.38672 36.8398 3.38672 36.3789ZM9.28125 36.3789C9.30469 37.1367 9.44531 37.7773 9.70312 38.3008C9.9375 38.8242 10.2734 39.2539 10.7109 39.5898C11.2031 39.9883 11.875 40.1875 12.7266 40.1875C13.5625 40.1875 14.2266 39.9883 14.7188 39.5898C15.1953 39.2305 15.543 38.8008 15.7617 38.3008C16.0195 37.7773 16.1602 37.1367 16.1836 36.3789V25.9844C16.1602 25.2422 16.0195 24.6094 15.7617 24.0859C15.5352 23.5625 15.1875 23.125 14.7188 22.7734C14.1797 22.3672 13.5156 22.1641 12.7266 22.1641C11.9219 22.1641 11.25 22.3672 10.7109 22.7734C10.2812 23.1016 9.94531 23.5391 9.70312 24.0859C9.44531 24.6094 9.30469 25.2422 9.28125 25.9844V36.3789ZM11.8711 36.3789V25.9844C11.8711 25.7188 11.9023 25.5039 11.9648 25.3398C12.0977 24.9023 12.3516 24.6836 12.7266 24.6836C12.9531 24.6836 13.1328 24.75 13.2656 24.8828C13.4844 25.1562 13.5938 25.5234 13.5938 25.9844V36.3789C13.5938 36.6602 13.5625 36.875 13.5 37.0234C13.3906 37.4531 13.1328 37.668 12.7266 37.668C12.5156 37.668 12.3477 37.6055 12.2227 37.4805C11.9883 37.207 11.8711 36.8398 11.8711 36.3789ZM17.7656 36.3789C17.7891 37.1367 17.9297 37.7773 18.1875 38.3008C18.4219 38.8242 18.7578 39.2539 19.1953 39.5898C19.6875 39.9883 20.3594 40.1875 21.2109 40.1875C22.0469 40.1875 22.7109 39.9883 23.2031 39.5898C23.6797 39.2305 24.0273 38.8008 24.2461 38.3008C24.5039 37.7773 24.6445 37.1367 24.668 36.3789V25.9844C24.6445 25.2422 24.5039 24.6094 24.2461 24.0859C24.0195 23.5625 23.6719 23.125 23.2031 22.7734C22.6641 22.3672 22 22.1641 21.2109 22.1641C20.4062 22.1641 19.7344 22.3672 19.1953 22.7734C18.7656 23.1016 18.4297 23.5391 18.1875 24.0859C17.9297 24.6094 17.7891 25.2422 17.7656 25.9844V36.3789ZM20.3555 36.3789V25.9844C20.3555 25.7188 20.3867 25.5039 20.4492 25.3398C20.582 24.9023 20.8359 24.6836 21.2109 24.6836C21.4375 24.6836 21.6172 24.75 21.75 24.8828C21.9688 25.1562 22.0781 25.5234 22.0781 25.9844V36.3789C22.0781 36.6602 22.0469 36.875 21.9844 37.0234C21.875 37.4531 21.6172 37.668 21.2109 37.668C21 37.668 20.832 37.6055 20.707 37.4805C20.4727 37.207 20.3555 36.8398 20.3555 36.3789Z" fill="white"/>
</svg>
